<svg width="1160" height="560" xmlns="http://www.w3.org/2000/svg"><rect width="1160" height="560" fill="white"/><text x="20" y="30" font-size="20" font-weight="bold">Final Routine (Term: L1_T2)</text><text x="20" y="50" font-size="16" font-weight="bold">ME C</text><rect x="0" y="60" width="80" height="40" fill="#f0f0f0" stroke="black" stroke-width="1"/><rect x="80" y="60" width="120" height="40" fill="#e0e0e0" stroke="black" stroke-width="1"/><text x="140" y="85" font-size="12" text-anchor="middle">8:00</text><rect x="200" y="60" width="120" height="40" fill="#e0e0e0" stroke="black" stroke-width="1"/><text x="260" y="85" font-size="12" text-anchor="middle">9:00</text><rect x="320" y="60" width="120" height="40" fill="#e0e0e0" stroke="black" stroke-width="1"/><text x="380" y="85" font-size="12" text-anchor="middle">10:00</text><rect x="440" y="60" width="120" height="40" fill="#e0e0e0" stroke="black" stroke-width="1"/><text x="500" y="85" font-size="12" text-anchor="middle">11:00</text><rect x="560" y="60" width="120" height="40" fill="#e0e0e0" stroke="black" stroke-width="1"/><text x="620" y="85" font-size="12" text-anchor="middle">12:00</text><rect x="680" y="60" width="120" height="40" fill="#e0e0e0" stroke="black" stroke-width="1"/><text x="740" y="85" font-size="12" text-anchor="middle">1:00</text><rect x="800" y="60" width="120" height="40" fill="#e0e0e0" stroke="black" stroke-width="1"/><text x="860" y="85" font-size="12" text-anchor="middle">2:00</text><rect x="920" y="60" width="120" height="40" fill="#e0e0e0" stroke="black" stroke-width="1"/><text x="980" y="85" font-size="12" text-anchor="middle">3:00</text><rect x="1040" y="60" width="120" height="40" fill="#e0e0e0" stroke="black" stroke-width="1"/><text x="1100" y="85" font-size="12" text-anchor="middle">4:00</text><rect x="0" y="100" width="80" height="80" fill="#f0f0f0" stroke="black" stroke-width="1"/><text x="40" y="140" font-size="14" font-weight="bold" text-anchor="middle" dominant-baseline="middle">Sa</text><rect x="80" y="100" width="120" height="80" fill="white" stroke="black" stroke-width="1"/><rect x="200" y="100" width="120" height="80" fill="white" stroke="black" stroke-width="1"/><rect x="320" y="100" width="120" height="80" fill="white" stroke="black" stroke-width="1"/><rect x="440" y="100" width="120" height="80" fill="white" stroke="black" stroke-width="1"/><rect x="560" y="100" width="120" height="80" fill="white" stroke="black" stroke-width="1"/><rect x="680" y="100" width="120" height="80" fill="white" stroke="black" stroke-width="1"/><rect x="800" y="100" width="120" height="80" fill="white" stroke="black" stroke-width="1"/><rect x="920" y="100" width="120" height="80" fill="white" stroke="black" stroke-width="1"/><rect x="1040" y="100" width="120" height="80" fill="white" stroke="black" stroke-width="1"/><rect x="202" y="102" width="116" height="76" fill="#4CAF50" stroke="#333" stroke-width="1" rx="3"/><text x="260" y="125" font-size="11" font-weight="bold" fill="white" text-anchor="middle">Hum 103</text><text x="260" y="145" font-size="9" fill="white" text-anchor="middle">Dr. Md. Abdu</text><rect x="82" y="102" width="116" height="76" fill="#4CAF50" stroke="#333" stroke-width="1" rx="3"/><text x="140" y="125" font-size="11" font-weight="bold" fill="white" text-anchor="middle">Hum 103</text><text x="140" y="145" font-size="9" fill="white" text-anchor="middle"> Syed Mahbub</text><rect x="562" y="102" width="116" height="76" fill="#4CAF50" stroke="#333" stroke-width="1" rx="3"/><text x="620" y="125" font-size="11" font-weight="bold" fill="white" text-anchor="middle">Hum 103</text><text x="620" y="145" font-size="9" fill="white" text-anchor="middle">Dr. Md. Abdu</text><rect x="322" y="102" width="116" height="76" fill="#4CAF50" stroke="#333" stroke-width="1" rx="3"/><text x="380" y="125" font-size="11" font-weight="bold" fill="white" text-anchor="middle">PHY 159</text><text x="380" y="145" font-size="9" fill="white" text-anchor="middle">Dr. Mohammed</text><rect x="442" y="102" width="116" height="76" fill="#4CAF50" stroke="#333" stroke-width="1" rx="3"/><text x="500" y="125" font-size="11" font-weight="bold" fill="white" text-anchor="middle">PHY 159</text><text x="500" y="145" font-size="9" fill="white" text-anchor="middle">Dr. Md. Aziz</text><rect x="0" y="180" width="80" height="80" fill="#f0f0f0" stroke="black" stroke-width="1"/><text x="40" y="220" font-size="14" font-weight="bold" text-anchor="middle" dominant-baseline="middle">Su</text><rect x="80" y="180" width="120" height="80" fill="white" stroke="black" stroke-width="1"/><rect x="200" y="180" width="120" height="80" fill="white" stroke="black" stroke-width="1"/><rect x="320" y="180" width="120" height="80" fill="white" stroke="black" stroke-width="1"/><rect x="440" y="180" width="120" height="80" fill="white" stroke="black" stroke-width="1"/><rect x="560" y="180" width="120" height="80" fill="white" stroke="black" stroke-width="1"/><rect x="680" y="180" width="120" height="80" fill="white" stroke="black" stroke-width="1"/><rect x="800" y="180" width="120" height="80" fill="white" stroke="black" stroke-width="1"/><rect x="920" y="180" width="120" height="80" fill="white" stroke="black" stroke-width="1"/><rect x="1040" y="180" width="120" height="80" fill="white" stroke="black" stroke-width="1"/><rect x="82" y="182" width="356" height="76" fill="#4CAF50" stroke="#333" stroke-width="1" rx="3"/><text x="260" y="205" font-size="11" font-weight="bold" fill="white" text-anchor="middle">PHY 102</text><text x="260" y="225" font-size="9" fill="white" text-anchor="middle">Dr. Mohammad</text><rect x="562" y="182" width="116" height="76" fill="#4CAF50" stroke="#333" stroke-width="1" rx="3"/><text x="620" y="205" font-size="11" font-weight="bold" fill="white" text-anchor="middle">PHY 159</text><text x="620" y="225" font-size="9" fill="white" text-anchor="middle">Dr. Md. Most</text><rect x="442" y="182" width="116" height="76" fill="#4CAF50" stroke="#333" stroke-width="1" rx="3"/><text x="500" y="205" font-size="11" font-weight="bold" fill="white" text-anchor="middle">ME 171</text><text x="500" y="225" font-size="9" fill="white" text-anchor="middle">Dr. Mohammad</text><rect x="0" y="260" width="80" height="80" fill="#f0f0f0" stroke="black" stroke-width="1"/><text x="40" y="300" font-size="14" font-weight="bold" text-anchor="middle" dominant-baseline="middle">Mo</text><rect x="80" y="260" width="120" height="80" fill="white" stroke="black" stroke-width="1"/><rect x="200" y="260" width="120" height="80" fill="white" stroke="black" stroke-width="1"/><rect x="320" y="260" width="120" height="80" fill="white" stroke="black" stroke-width="1"/><rect x="440" y="260" width="120" height="80" fill="white" stroke="black" stroke-width="1"/><rect x="560" y="260" width="120" height="80" fill="white" stroke="black" stroke-width="1"/><rect x="680" y="260" width="120" height="80" fill="white" stroke="black" stroke-width="1"/><rect x="800" y="260" width="120" height="80" fill="white" stroke="black" stroke-width="1"/><rect x="920" y="260" width="120" height="80" fill="white" stroke="black" stroke-width="1"/><rect x="1040" y="260" width="120" height="80" fill="white" stroke="black" stroke-width="1"/><rect x="322" y="262" width="116" height="76" fill="#4CAF50" stroke="#333" stroke-width="1" rx="3"/><text x="380" y="285" font-size="11" font-weight="bold" fill="white" text-anchor="middle">ME 171</text><text x="380" y="305" font-size="9" fill="white" text-anchor="middle">Dr. Sheikh M</text><rect x="442" y="262" width="116" height="76" fill="#4CAF50" stroke="#333" stroke-width="1" rx="3"/><text x="500" y="285" font-size="11" font-weight="bold" fill="white" text-anchor="middle">ME 171</text><text x="500" y="305" font-size="9" fill="white" text-anchor="middle">Dr. Mohammad</text><rect x="82" y="262" width="116" height="76" fill="#4CAF50" stroke="#333" stroke-width="1" rx="3"/><text x="140" y="285" font-size="11" font-weight="bold" fill="white" text-anchor="middle">CHEM 141</text><text x="140" y="305" font-size="9" fill="white" text-anchor="middle">Dr. Chanchal</text><rect x="202" y="262" width="116" height="76" fill="#4CAF50" stroke="#333" stroke-width="1" rx="3"/><text x="260" y="285" font-size="11" font-weight="bold" fill="white" text-anchor="middle">CHEM 141</text><text x="260" y="305" font-size="9" fill="white" text-anchor="middle">Md. Kaium Ho</text><rect x="562" y="262" width="116" height="76" fill="#4CAF50" stroke="#333" stroke-width="1" rx="3"/><text x="620" y="285" font-size="11" font-weight="bold" fill="white" text-anchor="middle">Math 163</text><text x="620" y="305" font-size="9" fill="white" text-anchor="middle">Dr. Abdul Ha</text><rect x="0" y="340" width="80" height="80" fill="#f0f0f0" stroke="black" stroke-width="1"/><text x="40" y="380" font-size="14" font-weight="bold" text-anchor="middle" dominant-baseline="middle">Tu</text><rect x="80" y="340" width="120" height="80" fill="white" stroke="black" stroke-width="1"/><rect x="200" y="340" width="120" height="80" fill="white" stroke="black" stroke-width="1"/><rect x="320" y="340" width="120" height="80" fill="white" stroke="black" stroke-width="1"/><rect x="440" y="340" width="120" height="80" fill="white" stroke="black" stroke-width="1"/><rect x="560" y="340" width="120" height="80" fill="white" stroke="black" stroke-width="1"/><rect x="680" y="340" width="120" height="80" fill="white" stroke="black" stroke-width="1"/><rect x="800" y="340" width="120" height="80" fill="white" stroke="black" stroke-width="1"/><rect x="920" y="340" width="120" height="80" fill="white" stroke="black" stroke-width="1"/><rect x="1040" y="340" width="120" height="80" fill="white" stroke="black" stroke-width="1"/><rect x="202" y="342" width="116" height="76" fill="#4CAF50" stroke="#333" stroke-width="1" rx="3"/><text x="260" y="365" font-size="11" font-weight="bold" fill="white" text-anchor="middle">CHEM 141</text><text x="260" y="385" font-size="9" fill="white" text-anchor="middle">Dr. Chanchal</text><rect x="82" y="342" width="116" height="76" fill="#4CAF50" stroke="#333" stroke-width="1" rx="3"/><text x="140" y="365" font-size="11" font-weight="bold" fill="white" text-anchor="middle">Math 163</text><text x="140" y="385" font-size="9" fill="white" text-anchor="middle"> Syed Mahbub</text><rect x="562" y="342" width="116" height="76" fill="#4CAF50" stroke="#333" stroke-width="1" rx="3"/><text x="620" y="365" font-size="11" font-weight="bold" fill="white" text-anchor="middle">Math 163</text><text x="620" y="385" font-size="9" fill="white" text-anchor="middle">Dr. Abdul Ha</text><rect x="322" y="342" width="236" height="76" fill="#4CAF50" stroke="#333" stroke-width="1" rx="3"/><text x="440" y="365" font-size="11" font-weight="bold" fill="white" text-anchor="middle">ME 172</text><text x="440" y="385" font-size="9" fill="white" text-anchor="middle">Kazi Tawseef</text><rect x="0" y="420" width="80" height="80" fill="#f0f0f0" stroke="black" stroke-width="1"/><text x="40" y="460" font-size="14" font-weight="bold" text-anchor="middle" dominant-baseline="middle">We</text><rect x="80" y="420" width="120" height="80" fill="white" stroke="black" stroke-width="1"/><rect x="200" y="420" width="120" height="80" fill="white" stroke="black" stroke-width="1"/><rect x="320" y="420" width="120" height="80" fill="white" stroke="black" stroke-width="1"/><rect x="440" y="420" width="120" height="80" fill="white" stroke="black" stroke-width="1"/><rect x="560" y="420" width="120" height="80" fill="white" stroke="black" stroke-width="1"/><rect x="680" y="420" width="120" height="80" fill="white" stroke="black" stroke-width="1"/><rect x="800" y="420" width="120" height="80" fill="white" stroke="black" stroke-width="1"/><rect x="920" y="420" width="120" height="80" fill="white" stroke="black" stroke-width="1"/><rect x="1040" y="420" width="120" height="80" fill="white" stroke="black" stroke-width="1"/><rect x="82" y="422" width="116" height="76" fill="#4CAF50" stroke="#333" stroke-width="1" rx="3"/><text x="140" y="445" font-size="11" font-weight="bold" fill="white" text-anchor="middle">Math 163</text><text x="140" y="465" font-size="9" fill="white" text-anchor="middle"> Syed Mahbub</text><rect x="202" y="422" width="236" height="76" fill="#4CAF50" stroke="#333" stroke-width="1" rx="3"/><text x="320" y="445" font-size="11" font-weight="bold" fill="white" text-anchor="middle">ME 172</text><text x="320" y="465" font-size="9" fill="white" text-anchor="middle">Kazi Tawseef</text></svg>