<svg width="1160" height="560" xmlns="http://www.w3.org/2000/svg"><rect width="1160" height="560" fill="white"/><text x="20" y="30" font-size="20" font-weight="bold">Teacher Schedule</text><text x="20" y="50" font-size="16" font-weight="bold">Dr. Md. Azizar Rahman</text><rect x="0" y="60" width="80" height="40" fill="#f0f0f0" stroke="black" stroke-width="1"/><rect x="80" y="60" width="120" height="40" fill="#e0e0e0" stroke="black" stroke-width="1"/><text x="140" y="85" font-size="12" text-anchor="middle">8:00</text><rect x="200" y="60" width="120" height="40" fill="#e0e0e0" stroke="black" stroke-width="1"/><text x="260" y="85" font-size="12" text-anchor="middle">9:00</text><rect x="320" y="60" width="120" height="40" fill="#e0e0e0" stroke="black" stroke-width="1"/><text x="380" y="85" font-size="12" text-anchor="middle">10:00</text><rect x="440" y="60" width="120" height="40" fill="#e0e0e0" stroke="black" stroke-width="1"/><text x="500" y="85" font-size="12" text-anchor="middle">11:00</text><rect x="560" y="60" width="120" height="40" fill="#e0e0e0" stroke="black" stroke-width="1"/><text x="620" y="85" font-size="12" text-anchor="middle">12:00</text><rect x="680" y="60" width="120" height="40" fill="#e0e0e0" stroke="black" stroke-width="1"/><text x="740" y="85" font-size="12" text-anchor="middle">1:00</text><rect x="800" y="60" width="120" height="40" fill="#e0e0e0" stroke="black" stroke-width="1"/><text x="860" y="85" font-size="12" text-anchor="middle">2:00</text><rect x="920" y="60" width="120" height="40" fill="#e0e0e0" stroke="black" stroke-width="1"/><text x="980" y="85" font-size="12" text-anchor="middle">3:00</text><rect x="1040" y="60" width="120" height="40" fill="#e0e0e0" stroke="black" stroke-width="1"/><text x="1100" y="85" font-size="12" text-anchor="middle">4:00</text><rect x="0" y="100" width="80" height="80" fill="#f0f0f0" stroke="black" stroke-width="1"/><text x="40" y="140" font-size="14" font-weight="bold" text-anchor="middle" dominant-baseline="middle">Sa</text><rect x="80" y="100" width="120" height="80" fill="white" stroke="black" stroke-width="1"/><rect x="200" y="100" width="120" height="80" fill="white" stroke="black" stroke-width="1"/><rect x="320" y="100" width="120" height="80" fill="white" stroke="black" stroke-width="1"/><rect x="440" y="100" width="120" height="80" fill="white" stroke="black" stroke-width="1"/><rect x="560" y="100" width="120" height="80" fill="white" stroke="black" stroke-width="1"/><rect x="680" y="100" width="120" height="80" fill="white" stroke="black" stroke-width="1"/><rect x="800" y="100" width="120" height="80" fill="white" stroke="black" stroke-width="1"/><rect x="920" y="100" width="120" height="80" fill="white" stroke="black" stroke-width="1"/><rect x="1040" y="100" width="120" height="80" fill="white" stroke="black" stroke-width="1"/><rect x="0" y="180" width="80" height="80" fill="#f0f0f0" stroke="black" stroke-width="1"/><text x="40" y="220" font-size="14" font-weight="bold" text-anchor="middle" dominant-baseline="middle">Su</text><rect x="80" y="180" width="120" height="80" fill="white" stroke="black" stroke-width="1"/><rect x="200" y="180" width="120" height="80" fill="white" stroke="black" stroke-width="1"/><rect x="320" y="180" width="120" height="80" fill="white" stroke="black" stroke-width="1"/><rect x="440" y="180" width="120" height="80" fill="white" stroke="black" stroke-width="1"/><rect x="560" y="180" width="120" height="80" fill="white" stroke="black" stroke-width="1"/><rect x="680" y="180" width="120" height="80" fill="white" stroke="black" stroke-width="1"/><rect x="800" y="180" width="120" height="80" fill="white" stroke="black" stroke-width="1"/><rect x="920" y="180" width="120" height="80" fill="white" stroke="black" stroke-width="1"/><rect x="1040" y="180" width="120" height="80" fill="white" stroke="black" stroke-width="1"/><defs><linearGradient id="blueGrad" x1="0%" y1="0%" x2="100%" y2="100%"><stop offset="0%" style="stop-color:#1e40af;stop-opacity:1" /><stop offset="100%" style="stop-color:#3b82f6;stop-opacity:1" /></linearGradient></defs><rect x="322" y="182" width="116" height="76" fill="url(#blueGrad)" stroke="#1e3a8a" stroke-width="2" rx="4"/><text x="380" y="200" font-size="11" font-weight="bold" fill="white" text-anchor="middle">PHY 159</text><text x="380" y="220" font-size="9" fill="white" text-anchor="middle">Wave and O</text><text x="380" y="235" font-size="8" fill="white" text-anchor="middle">ME-512</text><rect x="0" y="260" width="80" height="80" fill="#f0f0f0" stroke="black" stroke-width="1"/><text x="40" y="300" font-size="14" font-weight="bold" text-anchor="middle" dominant-baseline="middle">Mo</text><rect x="80" y="260" width="120" height="80" fill="white" stroke="black" stroke-width="1"/><rect x="200" y="260" width="120" height="80" fill="white" stroke="black" stroke-width="1"/><rect x="320" y="260" width="120" height="80" fill="white" stroke="black" stroke-width="1"/><rect x="440" y="260" width="120" height="80" fill="white" stroke="black" stroke-width="1"/><rect x="560" y="260" width="120" height="80" fill="white" stroke="black" stroke-width="1"/><rect x="680" y="260" width="120" height="80" fill="white" stroke="black" stroke-width="1"/><rect x="800" y="260" width="120" height="80" fill="white" stroke="black" stroke-width="1"/><rect x="920" y="260" width="120" height="80" fill="white" stroke="black" stroke-width="1"/><rect x="1040" y="260" width="120" height="80" fill="white" stroke="black" stroke-width="1"/><rect x="0" y="340" width="80" height="80" fill="#f0f0f0" stroke="black" stroke-width="1"/><text x="40" y="380" font-size="14" font-weight="bold" text-anchor="middle" dominant-baseline="middle">Tu</text><rect x="80" y="340" width="120" height="80" fill="white" stroke="black" stroke-width="1"/><rect x="200" y="340" width="120" height="80" fill="white" stroke="black" stroke-width="1"/><rect x="320" y="340" width="120" height="80" fill="white" stroke="black" stroke-width="1"/><rect x="440" y="340" width="120" height="80" fill="white" stroke="black" stroke-width="1"/><rect x="560" y="340" width="120" height="80" fill="white" stroke="black" stroke-width="1"/><rect x="680" y="340" width="120" height="80" fill="white" stroke="black" stroke-width="1"/><rect x="800" y="340" width="120" height="80" fill="white" stroke="black" stroke-width="1"/><rect x="920" y="340" width="120" height="80" fill="white" stroke="black" stroke-width="1"/><rect x="1040" y="340" width="120" height="80" fill="white" stroke="black" stroke-width="1"/><rect x="0" y="420" width="80" height="80" fill="#f0f0f0" stroke="black" stroke-width="1"/><text x="40" y="460" font-size="14" font-weight="bold" text-anchor="middle" dominant-baseline="middle">We</text><rect x="80" y="420" width="120" height="80" fill="white" stroke="black" stroke-width="1"/><rect x="200" y="420" width="120" height="80" fill="white" stroke="black" stroke-width="1"/><rect x="320" y="420" width="120" height="80" fill="white" stroke="black" stroke-width="1"/><rect x="440" y="420" width="120" height="80" fill="white" stroke="black" stroke-width="1"/><rect x="560" y="420" width="120" height="80" fill="white" stroke="black" stroke-width="1"/><rect x="680" y="420" width="120" height="80" fill="white" stroke="black" stroke-width="1"/><rect x="800" y="420" width="120" height="80" fill="white" stroke="black" stroke-width="1"/><rect x="920" y="420" width="120" height="80" fill="white" stroke="black" stroke-width="1"/><rect x="1040" y="420" width="120" height="80" fill="white" stroke="black" stroke-width="1"/><text x="20" y="520" font-size="12" font-weight="bold">Total Classes: 1</text><rect x="20" y="530" width="30" height="20" fill="#3B82F6" stroke="#1e3a8a" stroke-width="1"/><text x="60" y="545" font-size="11">Assigned Class</text></svg>